<svg width="83" height="85" viewBox="0 0 83 85" fill="none" xmlns="http://www.w3.org/2000/svg">
<path d="M53.6899 0.6819C54.3117 -0.0609326 55.5208 0.425881 55.4544 1.39233L53.4051 31.2134C53.3754 31.6456 53.6274 32.0478 54.0292 32.2096L81.7575 43.3738C82.6561 43.7357 82.5668 45.036 81.6271 45.2715L52.6323 52.5377C52.2121 52.643 51.9074 53.0069 51.8777 53.4391L49.8284 83.2602C49.762 84.2267 48.4977 84.5435 47.9834 83.7226L32.1129 58.3923C31.8829 58.0252 31.4426 57.8479 31.0224 57.9532L2.02758 65.2194C1.08791 65.4549 0.395884 64.3504 1.01767 63.6076L20.204 40.6864C20.4821 40.3541 20.5146 39.8807 20.2846 39.5135L4.41412 14.1832C3.89979 13.3623 4.73641 12.3628 5.63503 12.7247L33.3633 23.8889C33.7652 24.0507 34.2255 23.9353 34.5036 23.6031L53.6899 0.6819Z" fill="#005291"/>
</svg>
