<svg width="94" height="51" viewBox="0 0 94 51" fill="none" xmlns="http://www.w3.org/2000/svg">
<path d="M13.3572 17.1051H18.072V22.9652H23.1012V17.1051H27.8175V33.103H23.1012V26.7693H18.072V33.106H13.3572V17.1051ZM44.6411 17.1051V33.103H40.076V20.9062H37.09V25.4993C37.09 27.5597 36.9328 30.0938 35.6755 31.5192C34.4182 33.103 32.0608 33.5782 29.3891 33.103V29.142C31.9096 29.6186 32.5323 28.6669 32.5323 25.4993V17.1051H44.6411ZM48.5716 17.1051H53.2864L55.9552 26.6079L58.624 17.1051H63.3388L65.5331 33.103H61.1371L60.0369 24.549L57.5164 33.103H54.3732L51.8527 24.549L50.7511 33.103H46.3639L48.5716 17.1051ZM67.2738 17.1051H71.9886V23.5987L76.5477 17.1051H81.737L75.7634 25.0241L81.8942 33.103H76.2245L71.9812 26.6079V33.103H67.2663L67.2738 17.1051ZM46.9911 0C18.7021 0 0 10.2947 0 25.4993C0 40.5469 18.7036 51 47 51C75.4491 51 94 40.5409 94 25.4993C94 10.2947 75.455 0 47 0H46.9911ZM47 48.6243C20.4294 48.6243 2.66877 39.2798 2.66877 25.4993C2.66877 11.5618 20.4279 2.37421 46.9896 2.37421C73.7099 2.37421 91.312 11.5618 91.312 25.4993C91.312 39.2798 73.7099 48.6243 46.9896 48.6243H47ZM46.9896 4.59154C22.0025 4.59154 5.33754 12.9872 5.33754 25.4993C5.33754 38.0113 22.0025 46.407 46.9911 46.407C71.9797 46.407 88.6417 38.0128 88.6417 25.4993C88.6417 12.9857 71.9812 4.59154 46.9911 4.59154H46.9896ZM46.9911 45.9318C22.3154 45.9318 5.81347 37.696 5.81347 25.4993C5.81347 13.3025 22.3154 5.06668 46.9911 5.06668C71.6668 5.06668 88.1702 13.304 88.1702 25.4993C88.1702 37.6945 71.6668 45.9318 46.9911 45.9318Z" fill="#005291"/>
</svg>
