<svg width="41" height="32" fill="none" xmlns="http://www.w3.org/2000/svg"><path d="M38.56 14H2.44a.48.48 0 00-.384.193.508.508 0 00-.09.428l3.91 16.017c.094.337.382 1.363 1.445 1.363H33.68c1.067 0 1.352-1.026 1.45-1.38l3.904-16a.513.513 0 00-.089-.429.49.49 0 00-.384-.192zm-4.374 16.363c-.177.637-.36.637-.507.637H7.32c-.145 0-.328 0-.503-.62L3.066 15h34.869l-3.749 15.363z" fill="#005291"/><path d="M18.06 28a.478.478 0 00.344-.146.506.506 0 00.143-.354v-9a.506.506 0 00-.143-.354.482.482 0 00-.69 0 .506.506 0 00-.143.354v9c0 .133.051.26.143.354a.482.482 0 00.345.146zm-6.835 0a.478.478 0 00.364-.166.503.503 0 00.122-.389l-.976-9a.503.503 0 00-.18-.335.48.48 0 00-.686.078.509.509 0 00-.105.367l.977 9c.013.122.07.235.159.317.09.083.205.128.325.128zm12.692 0a.48.48 0 00.345-.146.506.506 0 00.143-.354v-9a.506.506 0 00-.143-.354.482.482 0 00-.69 0 .506.506 0 00-.143.354v9c0 .133.051.26.143.354a.482.482 0 00.345.146zm5.803-.003l.056.003c.12 0 .235-.045.325-.128a.504.504 0 00.159-.317l.976-9a.508.508 0 00-.104-.367.48.48 0 00-.686-.078.503.503 0 00-.18.335l-.977 9a.508.508 0 00.104.367c.08.104.198.17.327.185zM33.68 12a.48.48 0 00.264-.08.51.51 0 00.105-.748l-9.273-11a.483.483 0 00-.84.296.509.509 0 00.102.357l9.274 11a.488.488 0 00.369.174zM17.392.112a.48.48 0 00-.686.071l-8.786 11a.503.503 0 00-.12.372.51.51 0 00.177.347.486.486 0 00.368.11.48.48 0 00.33-.196l8.787-11a.509.509 0 00-.07-.704zM40.511 10h-3.905a.482.482 0 00-.345.146.506.506 0 000 .708.483.483 0 00.345.146h3.905c.13 0 .254-.053.345-.146a.506.506 0 000-.707.482.482 0 00-.345-.147zM13.18 11h15.619c.13 0 .253-.053.345-.146a.507.507 0 000-.707.482.482 0 00-.345-.147h-15.62a.482.482 0 00-.345.146.506.506 0 000 .708.482.482 0 00.346.146zM.488 11H5.37c.13 0 .254-.053.345-.146a.506.506 0 000-.707A.482.482 0 005.37 10H.49a.482.482 0 00-.346.146.506.506 0 000 .708.483.483 0 00.345.146z" fill="#005291"/></svg>