<svg width="13" height="17" fill="none" xmlns="http://www.w3.org/2000/svg"><path d="M10.829 16.999H2.274a1.236 1.236 0 01-.522-.133 1.385 1.385 0 01-.438-.35 1.598 1.598 0 01-.286-.512 1.746 1.746 0 01-.092-.599V4.902h.936v10.503a.557.557 0 00.104.36.45.45 0 00.134.12c.051.03.107.047.164.051h8.555a.395.395 0 00.164-.051.446.446 0 00.134-.12.557.557 0 00.104-.36V4.902h.936v10.503c.004.205-.027.408-.092.599a1.61 1.61 0 01-.286.513 1.386 1.386 0 01-.438.35 1.236 1.236 0 01-.522.132zm1.703-13.28H.468a.442.442 0 01-.33-.156A.57.57 0 010 3.187c0-.14.05-.276.137-.375a.442.442 0 01.331-.156h12.064c.124 0 .243.056.33.156a.57.57 0 01.138.376.57.57 0 01-.137.375.442.442 0 01-.331.156z" fill="#fff"/><path d="M7.955 5.844h.936v7.968h-.936V5.845zm-3.743 0h.936v7.968h-.936V5.845zm4.68-3.794h-.89v-.987H5.101v.988h-.89v-.989c0-.272.093-.535.258-.733A.892.892 0 015.101 0h2.901c.24.014.467.132.632.33.166.197.258.46.258.732v.989z" fill="#fff"/></svg>