<svg width="94" height="51" fill="none" xmlns="http://www.w3.org/2000/svg"><path d="M13.357 17.105h4.715v5.86h5.03v-5.86h4.715v15.998h-4.716v-6.334h-5.029v6.337h-4.715v-16zm31.284 0v15.998h-4.565V20.906H37.09V25.5c0 2.06-.157 4.595-1.415 6.02-1.257 1.584-3.614 2.06-6.286 1.584v-3.961c2.52.477 3.143-.475 3.143-3.643v-8.394h12.11zm3.93 0h4.715l2.67 9.503 2.668-9.503h4.715l2.194 15.998h-4.396l-1.1-8.554-2.52 8.554h-3.144l-2.52-8.554-1.102 8.554h-4.387l2.208-15.998zm18.703 0h4.715V23.6l4.559-6.494h5.189l-5.974 7.92 6.131 8.078h-5.67l-4.243-6.495v6.495h-4.715l.008-15.998zM46.99 0C18.702 0 0 10.295 0 25.5 0 40.546 18.704 51 47 51c28.45 0 47-10.46 47-25.5C94 10.294 75.455 0 47 0h-.009zM47 48.624c-26.57 0-44.331-9.344-44.331-23.125 0-13.937 17.759-23.125 44.32-23.125 26.72 0 44.323 9.188 44.323 23.125 0 13.78-17.602 23.125-44.322 23.125H47zm-.01-44.032c-24.988 0-41.652 8.395-41.652 20.907S22.003 46.407 46.99 46.407c24.989 0 41.65-8.394 41.65-20.908 0-12.513-16.66-20.907-41.65-20.907h-.001zm.001 41.34c-24.676 0-41.178-8.236-41.178-20.433 0-12.196 16.502-20.432 41.178-20.432s41.18 8.237 41.18 20.432c0 12.195-16.504 20.433-41.18 20.433z" fill="#005291"/></svg>