<svg width="41" height="32" viewBox="0 0 41 32" fill="none" xmlns="http://www.w3.org/2000/svg">
<path d="M38.5597 14H2.44005C2.36601 14.0004 2.29303 14.018 2.22657 14.0515C2.1601 14.0849 2.10188 14.1333 2.05625 14.193C2.01062 14.2527 1.97876 14.3222 1.96306 14.3964C1.94737 14.4705 1.94824 14.5473 1.96561 14.621L5.8763 30.6385C5.97001 30.9755 6.258 32.0005 7.32109 32.0005H33.6787C34.7457 32.0005 35.0308 30.9745 35.1284 30.6215L39.0332 14.621C39.0511 14.5473 39.0525 14.4704 39.0371 14.3961C39.0217 14.3218 38.9899 14.2521 38.9443 14.1922C38.8987 14.1324 38.8403 14.084 38.7737 14.0507C38.707 14.0173 38.6339 14 38.5597 14ZM34.1863 30.3634C34.0087 31.0005 33.8251 31.0005 33.6787 31.0005H7.32109C7.17563 31.0005 6.99308 31.0005 6.81834 30.3794L3.0658 15H37.935L34.1863 30.3634Z" fill="#005291"/>
<path d="M18.0591 28.0003C18.1886 28.0003 18.3128 27.9476 18.4043 27.8538C18.4958 27.7601 18.5473 27.6329 18.5473 27.5003V18.5C18.5473 18.3674 18.4958 18.2402 18.4043 18.1465C18.3128 18.0527 18.1886 18 18.0591 18C17.9297 18 17.8055 18.0527 17.714 18.1465C17.6225 18.2402 17.571 18.3674 17.571 18.5V27.5003C17.571 27.6329 17.6225 27.7601 17.714 27.8538C17.8055 27.9476 17.9297 28.0003 18.0591 28.0003Z" fill="#005291"/>
<path d="M11.2248 28.0003C11.2936 28.0005 11.3615 27.9857 11.4243 27.9571C11.4871 27.9285 11.5433 27.8866 11.5891 27.8342C11.635 27.7818 11.6696 27.7201 11.6906 27.6531C11.7116 27.5861 11.7186 27.5153 11.711 27.4453L10.7348 18.445C10.7205 18.3132 10.6558 18.1926 10.5547 18.1097C10.4537 18.0268 10.3246 17.9884 10.1959 18.003C10.0672 18.0176 9.9495 18.084 9.86858 18.1875C9.78766 18.291 9.7502 18.4232 9.76444 18.5551L10.7406 27.5553C10.7538 27.6775 10.8105 27.7904 10.8998 27.8725C10.9891 27.9546 11.1049 28.0001 11.2248 28.0003Z" fill="#005291"/>
<path d="M23.9168 28.0003C24.0463 28.0003 24.1704 27.9476 24.262 27.8538C24.3535 27.7601 24.4049 27.6329 24.4049 27.5003V18.5C24.4049 18.3674 24.3535 18.2402 24.262 18.1465C24.1704 18.0527 24.0463 18 23.9168 18C23.7874 18 23.6632 18.0527 23.5717 18.1465C23.4801 18.2402 23.4287 18.3674 23.4287 18.5V27.5003C23.4287 27.6329 23.4801 27.7601 23.5717 27.8538C23.6632 27.9476 23.7874 28.0003 23.9168 28.0003Z" fill="#005291"/>
<path d="M29.7199 27.9973L29.7755 28.0003C29.8955 28.0001 30.0112 27.9546 30.1005 27.8725C30.1898 27.7904 30.2465 27.6775 30.2597 27.5553L31.2359 18.5551C31.2502 18.4232 31.2127 18.291 31.1318 18.1875C31.0509 18.084 30.9331 18.0176 30.8044 18.003C30.6758 17.9884 30.5467 18.0268 30.4456 18.1097C30.3446 18.1926 30.2798 18.3132 30.2656 18.445L29.2894 27.4453C29.2751 27.577 29.3124 27.709 29.3931 27.8125C29.4739 27.916 29.5914 27.9825 29.7199 27.9973Z" fill="#005291"/>
<path d="M33.6807 11.9993C33.7742 11.9992 33.8658 11.9717 33.9444 11.9199C34.0231 11.8681 34.0855 11.7943 34.1244 11.7071C34.1633 11.62 34.1769 11.5233 34.1637 11.4285C34.1504 11.3337 34.1109 11.2447 34.0497 11.1723L24.7758 0.171977C24.6894 0.0785021 24.5712 0.0227279 24.4458 0.0162579C24.3203 0.00978791 24.1972 0.0531203 24.1022 0.13724C24.0071 0.221359 23.9473 0.339788 23.9353 0.467888C23.9233 0.595987 23.96 0.723893 24.0377 0.824994L33.3117 11.8253C33.3573 11.8799 33.4139 11.9237 33.4776 11.9538C33.5413 11.9838 33.6106 11.9993 33.6807 11.9993Z" fill="#005291"/>
<path d="M17.3925 0.112477C17.2923 0.0287625 17.1637 -0.0107801 17.035 0.00253232C16.9064 0.0158447 16.7881 0.0809238 16.7062 0.183479L7.92036 11.1838C7.87688 11.2342 7.84378 11.2931 7.82304 11.357C7.80231 11.4208 7.79437 11.4883 7.79971 11.5554C7.80504 11.6225 7.82354 11.6877 7.85408 11.7473C7.88463 11.8069 7.9266 11.8595 7.97749 11.9021C8.02837 11.9446 8.08711 11.9762 8.1502 11.995C8.21329 12.0137 8.27943 12.0193 8.34464 12.0112C8.40986 12.0031 8.47282 11.9817 8.52975 11.9481C8.58668 11.9145 8.6364 11.8695 8.67595 11.8158L17.4618 0.815496C17.5435 0.712815 17.5821 0.581108 17.5691 0.449297C17.5562 0.317486 17.4926 0.196345 17.3925 0.112477Z" fill="#005291"/>
<path d="M40.5111 10H36.6063C36.4768 10 36.3527 10.0527 36.2611 10.1465C36.1696 10.2402 36.1182 10.3674 36.1182 10.5C36.1182 10.6326 36.1696 10.7598 36.2611 10.8536C36.3527 10.9473 36.4768 11 36.6063 11H40.5111C40.6406 11 40.7647 10.9473 40.8562 10.8536C40.9478 10.7598 40.9992 10.6326 40.9992 10.5C40.9992 10.3674 40.9478 10.2402 40.8562 10.1465C40.7647 10.0527 40.6406 10 40.5111 10Z" fill="#005291"/>
<path d="M13.1795 11H28.7988C28.9283 11 29.0524 10.9473 29.144 10.8536C29.2355 10.7598 29.2869 10.6326 29.2869 10.5C29.2869 10.3674 29.2355 10.2402 29.144 10.1465C29.0524 10.0527 28.9283 10 28.7988 10H13.1795C13.0501 10 12.9259 10.0527 12.8344 10.1465C12.7428 10.2402 12.6914 10.3674 12.6914 10.5C12.6914 10.6326 12.7428 10.7598 12.8344 10.8536C12.9259 10.9473 13.0501 11 13.1795 11Z" fill="#005291"/>
<path d="M0.488104 11H5.36914C5.4986 11 5.62275 10.9473 5.71428 10.8536C5.80582 10.7598 5.85725 10.6326 5.85725 10.5C5.85725 10.3674 5.80582 10.2402 5.71428 10.1465C5.62275 10.0527 5.4986 10 5.36914 10H0.488104C0.358651 10 0.2345 10.0527 0.142962 10.1465C0.0514251 10.2402 0 10.3674 0 10.5C0 10.6326 0.0514251 10.7598 0.142962 10.8536C0.2345 10.9473 0.358651 11 0.488104 11Z" fill="#005291"/>
</svg>
