<svg width="18" height="17" viewBox="0 0 18 17" fill="none" xmlns="http://www.w3.org/2000/svg">
<path d="M6.09106 4.63635V2.81817C6.09106 2.33596 6.28262 1.8735 6.6236 1.53253C6.96457 1.19156 7.42703 1 7.90924 1H15.1819C15.6641 1 16.1266 1.19156 16.4676 1.53253C16.8085 1.8735 17.0001 2.33596 17.0001 2.81817V13.7272C17.0001 14.2094 16.8085 14.6719 16.4676 15.0129C16.1266 15.3538 15.6641 15.5454 15.1819 15.5454H8.27287C7.26879 15.5454 6.09106 14.7313 6.09106 13.7272V11.909" stroke="#005291" stroke-linecap="round" stroke-linejoin="round"/>
<path d="M10.4548 11.9094L14.0912 8.27307L10.4548 4.63672" stroke="#005291" stroke-linecap="round" stroke-linejoin="round"/>
<path d="M1 8.26953H13.3636" stroke="#005291" stroke-linecap="round" stroke-linejoin="round"/>
</svg>
