<svg width="24" height="24" viewBox="0 0 24 24" fill="none" xmlns="http://www.w3.org/2000/svg">
<path d="M12 0C9.62663 0 7.30655 0.703788 5.33316 2.02236C3.35977 3.34094 1.8217 5.21508 0.913451 7.4078C0.00519941 9.60051 -0.232441 12.0133 0.230582 14.3411C0.693605 16.6689 1.83649 18.807 3.51472 20.4853C5.19295 22.1635 7.33115 23.3064 9.65892 23.7694C11.9867 24.2324 14.3995 23.9948 16.5922 23.0865C18.7849 22.1783 20.6591 20.6402 21.9776 18.6668C23.2962 16.6934 24 14.3734 24 12C23.9964 8.81851 22.731 5.76835 20.4813 3.5187C18.2316 1.26904 15.1815 0.00360364 12 0ZM12 22.1538C9.99176 22.1538 8.02862 21.5583 6.35883 20.4426C4.68904 19.3269 3.38759 17.7411 2.61907 15.8857C1.85055 14.0303 1.64947 11.9887 2.04126 10.0191C2.43305 8.04943 3.40011 6.24019 4.82015 4.82015C6.24019 3.40011 8.04943 2.43305 10.0191 2.04126C11.9887 1.64947 14.0303 1.85055 15.8857 2.61907C17.7411 3.38759 19.3269 4.68903 20.4426 6.35882C21.5583 8.02861 22.1538 9.99176 22.1538 12C22.1508 14.692 21.08 17.2729 19.1765 19.1765C17.2729 21.08 14.692 22.1508 12 22.1538ZM13.8462 17.5385C13.8462 17.7833 13.7489 18.0181 13.5758 18.1912C13.4027 18.3643 13.1679 18.4615 12.9231 18.4615H12C11.7552 18.4615 11.5204 18.3643 11.3473 18.1912C11.1742 18.0181 11.0769 17.7833 11.0769 17.5385V12C10.8321 12 10.5973 11.9027 10.4242 11.7296C10.2511 11.5565 10.1538 11.3217 10.1538 11.0769C10.1538 10.8321 10.2511 10.5973 10.4242 10.4242C10.5973 10.2511 10.8321 10.1538 11.0769 10.1538H12C12.2448 10.1538 12.4796 10.2511 12.6527 10.4242C12.8258 10.5973 12.9231 10.8321 12.9231 11.0769V16.6154C13.1679 16.6154 13.4027 16.7126 13.5758 16.8857C13.7489 17.0589 13.8462 17.2936 13.8462 17.5385ZM11.0208 7.90211C10.8599 7.7411 10.7411 7.54286 10.675 7.32497C10.6089 7.10707 10.5976 6.87624 10.642 6.65293C10.6864 6.42961 10.7853 6.2207 10.9297 6.04469C11.0742 5.86869 11.2598 5.73103 11.4702 5.6439C11.6805 5.55677 11.9091 5.52286 12.1357 5.54518C12.3623 5.5675 12.5799 5.64536 12.7692 5.77186C12.9586 5.89835 13.1138 6.06959 13.2211 6.2704C13.3284 6.4712 13.3846 6.69538 13.3846 6.92308V6.92354C13.3845 7.19736 13.3033 7.46502 13.1511 7.69266C12.9989 7.9203 12.7826 8.0977 12.5296 8.20245C12.2766 8.30719 11.9982 8.33456 11.7297 8.2811C11.4611 8.22764 11.2145 8.09575 11.0208 7.90211Z" fill="#005291"/>
</svg>
