<svg width="13" height="17" viewBox="0 0 13 17" fill="none" xmlns="http://www.w3.org/2000/svg">
<path d="M10.8287 16.9989H2.27432C2.09424 16.9941 1.91677 16.949 1.75204 16.8663C1.58731 16.7836 1.43855 16.6649 1.31426 16.5169C1.18997 16.3688 1.09259 16.1945 1.02768 16.0037C0.962764 15.813 0.931594 15.6096 0.935947 15.4052V4.90234H1.87187V15.4052C1.86741 15.4701 1.87429 15.5354 1.89212 15.5973C1.90995 15.6592 1.93839 15.7164 1.97579 15.7658C2.01319 15.8152 2.05882 15.8557 2.11005 15.8849C2.16128 15.9142 2.21711 15.9317 2.27432 15.9364H10.8287C10.8859 15.9317 10.9417 15.9142 10.9929 15.8849C11.0442 15.8557 11.0898 15.8152 11.1272 15.7658C11.1646 15.7164 11.193 15.6592 11.2109 15.5973C11.2287 15.5354 11.2356 15.4701 11.2311 15.4052V4.90234H12.167V15.4052C12.1714 15.6096 12.1402 15.813 12.0753 16.0037C12.0104 16.1945 11.913 16.3688 11.7887 16.5169C11.6644 16.6649 11.5157 16.7836 11.351 16.8663C11.1862 16.949 11.0087 16.9941 10.8287 16.9989Z" fill="white"/>
<path d="M12.532 3.71875H0.467963C0.343851 3.71875 0.224823 3.66278 0.137063 3.56315C0.0493031 3.46352 0 3.3284 0 3.1875C0 3.0466 0.0493031 2.91148 0.137063 2.81185C0.224823 2.71222 0.343851 2.65625 0.467963 2.65625H12.532C12.6561 2.65625 12.7752 2.71222 12.8629 2.81185C12.9507 2.91148 13 3.0466 13 3.1875C13 3.3284 12.9507 3.46352 12.8629 3.56315C12.7752 3.66278 12.6561 3.71875 12.532 3.71875Z" fill="white"/>
<path d="M7.95508 5.84375H8.891V13.8125H7.95508V5.84375Z" fill="white"/>
<path d="M4.21191 5.84375H5.14784V13.8125H4.21191V5.84375Z" fill="white"/>
<path d="M8.89154 2.05063H8.00241V1.0625H5.10104V2.05063H4.21191V1.0625C4.21161 0.789676 4.30377 0.527174 4.46929 0.329375C4.63482 0.131577 4.86102 0.0136411 5.10104 0H8.00241C8.24243 0.0136411 8.46864 0.131577 8.63416 0.329375C8.79968 0.527174 8.89184 0.789676 8.89154 1.0625V2.05063Z" fill="white"/>
</svg>
