<svg width="11" height="12" viewBox="0 0 11 12" fill="none" xmlns="http://www.w3.org/2000/svg">
<path fill-rule="evenodd" clip-rule="evenodd" d="M5.5 0C5.66208 0 5.81752 0.0643849 5.93212 0.17899C6.04673 0.293596 6.11111 0.449034 6.11111 0.611111V5.5C6.11111 5.66208 6.04673 5.81752 5.93212 5.93212C5.81752 6.04673 5.66208 6.11111 5.5 6.11111H0.611111C0.449034 6.11111 0.293596 6.04673 0.17899 5.93212C0.0643849 5.81752 0 5.66208 0 5.5C0 5.33792 0.0643849 5.18248 0.17899 5.06788C0.293596 4.95327 0.449034 4.88889 0.611111 4.88889H4.88889V0.611111C4.88889 0.449034 4.95327 0.293596 5.06788 0.17899C5.18248 0.0643849 5.33792 0 5.5 0Z" fill="white"/>
<path fill-rule="evenodd" clip-rule="evenodd" d="M4.88867 5.50174C4.88867 5.33966 4.95306 5.18422 5.06766 5.06962C5.18227 4.95501 5.33771 4.89062 5.49978 4.89062H10.3887C10.5507 4.89062 10.7062 4.95501 10.8208 5.06962C10.9354 5.18422 10.9998 5.33966 10.9998 5.50174C10.9998 5.66381 10.9354 5.81925 10.8208 5.93386C10.7062 6.04846 10.5507 6.11285 10.3887 6.11285H6.11089V10.3906C6.11089 10.5527 6.04651 10.7081 5.9319 10.8227C5.8173 10.9374 5.66186 11.0017 5.49978 11.0017C5.33771 11.0017 5.18227 10.9374 5.06766 10.8227C4.95306 10.7081 4.88867 10.5527 4.88867 10.3906V5.50174Z" fill="white"/>
</svg>
