<svg width="13" height="17" viewBox="0 0 13 17" fill="none" xmlns="http://www.w3.org/2000/svg">
<path d="M10.8267 16.9999H2.27237C2.09229 16.9951 1.91482 16.95 1.75009 16.8673C1.58536 16.7846 1.4366 16.6658 1.31231 16.5178C1.18802 16.3698 1.09064 16.1955 1.02572 16.0047C0.960811 15.814 0.929641 15.6106 0.933994 15.4062V4.90332H1.86992V15.4062C1.86545 15.4711 1.87233 15.5364 1.89017 15.5982C1.908 15.6601 1.93644 15.7174 1.97384 15.7668C2.01124 15.8162 2.05687 15.8566 2.1081 15.8859C2.15933 15.9152 2.21516 15.9327 2.27237 15.9374H10.8267C10.8839 15.9327 10.9398 15.9152 10.991 15.8859C11.0422 15.8566 11.0879 15.8162 11.1253 15.7668C11.1627 15.7174 11.1911 15.6601 11.2089 15.5982C11.2268 15.5364 11.2336 15.4711 11.2292 15.4062V4.90332H12.1651V15.4062C12.1694 15.6106 12.1383 15.814 12.0734 16.0047C12.0085 16.1955 11.9111 16.3698 11.7868 16.5178C11.6625 16.6658 11.5137 16.7846 11.349 16.8673C11.1843 16.95 11.0068 16.9951 10.8267 16.9999Z" fill="#005291"/>
<path d="M12.532 3.71875H0.467963C0.343851 3.71875 0.224823 3.66278 0.137063 3.56315C0.0493031 3.46352 0 3.3284 0 3.1875C0 3.0466 0.0493031 2.91148 0.137063 2.81185C0.224823 2.71222 0.343851 2.65625 0.467963 2.65625H12.532C12.6561 2.65625 12.7752 2.71222 12.8629 2.81185C12.9507 2.91148 13 3.0466 13 3.1875C13 3.3284 12.9507 3.46352 12.8629 3.56315C12.7752 3.66278 12.6561 3.71875 12.532 3.71875Z" fill="#005291"/>
<path d="M7.95703 5.84375H8.89296V13.8125H7.95703V5.84375Z" fill="#005291"/>
<path d="M4.21094 5.84375H5.14686V13.8125H4.21094V5.84375Z" fill="#005291"/>
<path d="M8.89056 2.05063H8.00144V1.0625H5.10007V2.05063H4.21094V1.0625C4.21064 0.789676 4.30279 0.527174 4.46832 0.329375C4.63384 0.131577 4.86004 0.0136411 5.10007 0H8.00144C8.24146 0.0136411 8.46766 0.131577 8.63318 0.329375C8.79871 0.527174 8.89086 0.789676 8.89056 1.0625V2.05063Z" fill="#005291"/>
</svg>
