<svg width="15" height="15" viewBox="0 0 15 15" fill="none" xmlns="http://www.w3.org/2000/svg">
<g opacity="0.75">
<path d="M6.15899 12.318C2.74786 12.318 0 9.57013 0 6.15899C0 2.74786 2.74786 0 6.15899 0C9.57013 0 12.318 2.74786 12.318 6.15899C12.318 9.57013 9.57013 12.318 6.15899 12.318ZM6.15899 0.947538C3.26901 0.947538 0.947538 3.26901 0.947538 6.15899C0.947538 9.04898 3.26901 11.3705 6.15899 11.3705C9.04898 11.3705 11.3705 9.04898 11.3705 6.15899C11.3705 3.26901 9.04898 0.947538 6.15899 0.947538Z" fill="#005291"/>
<path d="M10.7461 10.0742L15.0005 14.3287L14.3306 14.9986L10.0762 10.7441L10.7461 10.0742Z" fill="#005291"/>
</g>
</svg>
