<svg width="34" height="34" viewBox="0 0 34 34" fill="none" xmlns="http://www.w3.org/2000/svg">
<path d="M17 34C7.6 34 0 26.4 0 17C0 7.6 7.6 0 17 0C26.4 0 34 7.6 34 17C34 26.4 26.3 34 17 34ZM17 2C8.7 2 2 8.7 2 17C2 25.3 8.7 32 17 32C25.3 32 32 25.3 32 17C32 8.7 25.2 2 17 2Z" fill="#005291"/>
<path d="M7.20063 29.3L5.40063 28.5C5.90063 27.3 7.50063 26.6 9.20063 25.8C10.9006 25 13.0006 24.1 13.0006 23V21.5C12.4006 21 11.4006 19.9 11.2006 18.3C10.7006 17.8 9.90063 16.9 9.90063 15.7C9.90063 15 10.2006 14.4 10.4006 14C10.2006 13.2 10.0006 11.7 10.0006 10.5C10.0006 6.6 12.7006 4 17.0006 4C18.2006 4 19.7006 4.3 20.5006 5.2C22.4006 5.6 24.0006 7.8 24.0006 10.5C24.0006 12.2 23.7006 13.6 23.5006 14.3C23.7006 14.6 23.9006 15.1 23.9006 15.7C23.9006 17 23.2006 17.9 22.6006 18.3C22.4006 19.9 21.5006 20.9 20.9006 21.4V23C20.9006 23.9 22.7006 24.6 24.3006 25.2C26.2006 25.9 28.2006 26.7 28.9006 28.3L27.0006 29C26.7006 28.2 25.1006 27.6 23.6006 27.1C21.4006 26.3 18.9006 25.4 18.9006 23.1V20.5L19.4006 20.2C19.4006 20.2 20.6006 19.4 20.6006 17.8V17.1L21.2006 16.8C21.3006 16.8 21.8006 16.5 21.8006 15.7C21.8006 15.5 21.6006 15.2 21.5006 15.1L21.1006 14.7L21.3006 14.2C21.3006 14.2 21.8006 12.6 21.8006 10.6C21.8006 8.7 20.7006 7.3 19.8006 7.3H19.2006L18.9006 6.8C18.9006 6.4 18.2006 6 17.0006 6C13.9006 6 12.0006 7.7 12.0006 10.5C12.0006 11.8 12.5006 14 12.5006 14L12.6006 14.5L12.2006 15C12.1006 15 11.9006 15.3 11.9006 15.7C11.9006 16.2 12.5006 16.8 12.8006 17L13.2006 17.3V17.8C13.2006 19.3 14.5006 20.1 14.5006 20.2L15.0006 20.5V23.1C15.0006 25.5 12.4006 26.7 10.0006 27.7C8.90064 28.1 7.40064 28.8 7.20063 29.3Z" fill="#005291"/>
</svg>
